<svg width="32" height="32" viewBox="0 0 32 32" fill="none" xmlns="http://www.w3.org/2000/svg">
<path d="M4 23.4545C4 20.4421 6.44208 18 9.45455 18L28 18V28.33C28 29.8046 26.8046 31 25.33 31H9C6.23858 31 4 28.7614 4 26V23.4545Z" fill="url(#paint0_radial_10259_24202)"/>
<path d="M27.33 11H25V19H27.33C28.8046 19 30 17.8046 30 16.33V13.67C30 12.1954 28.8046 11 27.33 11Z" fill="#D9D9D9"/>
<path d="M27.33 11H25V19H27.33C28.8046 19 30 17.8046 30 16.33V13.67C30 12.1954 28.8046 11 27.33 11Z" fill="url(#paint1_radial_10259_24202)"/>
<path d="M6 21.4545C6 18.4421 8.44208 16 11.4545 16L26 16V26.33C26 27.8046 24.8046 29 23.33 29H9C7.34315 29 6 27.6569 6 26V21.4545Z" fill="url(#paint2_radial_10259_24202)"/>
<path d="M6 21.4545C6 18.4421 8.44208 16 11.4545 16L26 16V26.33C26 27.8046 24.8046 29 23.33 29H9C7.34315 29 6 27.6569 6 26V21.4545Z" fill="url(#paint3_linear_10259_24202)"/>
<path d="M6 21.4545C6 18.4421 8.44208 16 11.4545 16L26 16V26.33C26 27.8046 24.8046 29 23.33 29H9C7.34315 29 6 27.6569 6 26V21.4545Z" fill="url(#paint4_linear_10259_24202)"/>
<path d="M27.33 3H25V11H27.33C28.8046 11 30 9.8046 30 8.33V5.67C30 4.1954 28.8046 3 27.33 3Z" fill="#D9D9D9"/>
<path d="M27.33 3H25V11H27.33C28.8046 11 30 9.8046 30 8.33V5.67C30 4.1954 28.8046 3 27.33 3Z" fill="url(#paint5_radial_10259_24202)"/>
<path d="M17 7.99988H28V18.3299C28 19.8045 26.8046 20.9999 25.33 20.9999H17V7.99988Z" fill="url(#paint6_linear_10259_24202)"/>
<path d="M4.00488 6C4.00488 3.23858 6.24388 1 9.0053 1C14.5073 1 19.7389 1 25.329 1C26.8036 1 27.9996 2.1954 27.9996 3.67V11V18.33C27.9996 19.8046 26.8042 21 25.3296 21H19.9996H9C6.23937 21 4.00219 23.2394 4.00488 26V6Z" fill="url(#paint7_linear_10259_24202)"/>
<path d="M4.00488 6C4.00488 3.23858 6.24388 1 9.0053 1C14.5073 1 19.7389 1 25.329 1C26.8036 1 27.9996 2.1954 27.9996 3.67V11V18.33C27.9996 19.8046 26.8042 21 25.3296 21H19.9996H9C6.23937 21 4.00219 23.2394 4.00488 26V6Z" fill="url(#paint8_radial_10259_24202)"/>
<rect y="14" width="14" height="14" rx="2.75" fill="url(#paint9_radial_10259_24202)"/>
<rect y="14" width="14" height="14" rx="2.75" fill="url(#paint10_radial_10259_24202)" fill-opacity="0.8"/>
<path d="M7 23C8.933 23 10.5 21.433 10.5 19.5C10.5 17.567 8.933 16 7 16C5.067 16 3.5 17.567 3.5 19.5C3.5 21.433 5.067 23 7 23ZM7 24C7.72857 24 8.41165 23.8052 9 23.4649V25.5C9 25.6844 8.89851 25.8538 8.73593 25.9408C8.57335 26.0279 8.37608 26.0183 8.22265 25.916L7 25.1009L5.77735 25.916C5.62392 26.0183 5.42665 26.0279 5.26407 25.9408C5.10149 25.8538 5 25.6844 5 25.5V23.4649C5.58835 23.8052 6.27143 24 7 24Z" fill="#242424"/>
<path d="M7 23C8.933 23 10.5 21.433 10.5 19.5C10.5 17.567 8.933 16 7 16C5.067 16 3.5 17.567 3.5 19.5C3.5 21.433 5.067 23 7 23ZM7 24C7.72857 24 8.41165 23.8052 9 23.4649V25.5C9 25.6844 8.89851 25.8538 8.73593 25.9408C8.57335 26.0279 8.37608 26.0183 8.22265 25.916L7 25.1009L5.77735 25.916C5.62392 26.0183 5.42665 26.0279 5.26407 25.9408C5.10149 25.8538 5 25.6844 5 25.5V23.4649C5.58835 23.8052 6.27143 24 7 24Z" fill="white"/>
<path d="M7 23C8.933 23 10.5 21.433 10.5 19.5C10.5 17.567 8.933 16 7 16C5.067 16 3.5 17.567 3.5 19.5C3.5 21.433 5.067 23 7 23ZM7 24C7.72857 24 8.41165 23.8052 9 23.4649V25.5C9 25.6844 8.89851 25.8538 8.73593 25.9408C8.57335 26.0279 8.37608 26.0183 8.22265 25.916L7 25.1009L5.77735 25.916C5.62392 26.0183 5.42665 26.0279 5.26407 25.9408C5.10149 25.8538 5 25.6844 5 25.5V23.4649C5.58835 23.8052 6.27143 24 7 24Z" fill="url(#paint11_linear_10259_24202)"/>
<path d="M19.33 4H12.67C11.1954 4 10 5.1954 10 6.67V9.33C10 10.8046 11.1954 12 12.67 12H19.33C20.8046 12 22 10.8046 22 9.33V6.67C22 5.1954 20.8046 4 19.33 4Z" fill="#D9D9D9"/>
<path d="M19.33 4H12.67C11.1954 4 10 5.1954 10 6.67V9.33C10 10.8046 11.1954 12 12.67 12H19.33C20.8046 12 22 10.8046 22 9.33V6.67C22 5.1954 20.8046 4 19.33 4Z" fill="url(#paint12_radial_10259_24202)"/>
<path d="M19.33 4H12.67C11.1954 4 10 5.1954 10 6.67V9.33C10 10.8046 11.1954 12 12.67 12H19.33C20.8046 12 22 10.8046 22 9.33V6.67C22 5.1954 20.8046 4 19.33 4Z" fill="url(#paint13_linear_10259_24202)"/>
<path d="M19.33 4H12.67C11.1954 4 10 5.1954 10 6.67V9.33C10 10.8046 11.1954 12 12.67 12H19.33C20.8046 12 22 10.8046 22 9.33V6.67C22 5.1954 20.8046 4 19.33 4Z" fill="url(#paint14_linear_10259_24202)"/>
<defs>
<radialGradient id="paint0_radial_10259_24202" cx="0" cy="0" r="1" gradientUnits="userSpaceOnUse" gradientTransform="translate(27.3003 31) scale(38.0587 17.375)">
<stop offset="0.158518" stop-color="#A931D8"/>
<stop offset="0.565784" stop-color="#6E1996"/>
</radialGradient>
<radialGradient id="paint1_radial_10259_24202" cx="0" cy="0" r="1" gradientUnits="userSpaceOnUse" gradientTransform="translate(25 17.5) rotate(6.69261) scale(12.8708 17.3566)">
<stop stop-color="#6E1996"/>
<stop offset="0.384551" stop-color="#A931D8"/>
</radialGradient>
<radialGradient id="paint2_radial_10259_24202" cx="0" cy="0" r="1" gradientUnits="userSpaceOnUse" gradientTransform="translate(27.3003 29) scale(38.0587 17.375)">
<stop offset="0.158518" stop-color="#A931D8"/>
<stop offset="0.565784" stop-color="#6E1996"/>
</radialGradient>
<linearGradient id="paint3_linear_10259_24202" x1="6.49313" y1="16" x2="39.8201" y2="32.9273" gradientUnits="userSpaceOnUse">
<stop stop-color="#FDD3FF"/>
<stop offset="1" stop-color="#F3D8FF"/>
</linearGradient>
<linearGradient id="paint4_linear_10259_24202" x1="18" y1="15" x2="19.5" y2="34" gradientUnits="userSpaceOnUse">
<stop stop-color="#FDD3FF"/>
<stop offset="1" stop-color="white"/>
</linearGradient>
<radialGradient id="paint5_radial_10259_24202" cx="0" cy="0" r="1" gradientUnits="userSpaceOnUse" gradientTransform="translate(25 9.5) rotate(6.69261) scale(12.8708 17.3566)">
<stop stop-color="#6E1996"/>
<stop offset="0.384551" stop-color="#A931D8"/>
</radialGradient>
<linearGradient id="paint6_linear_10259_24202" x1="32.9379" y1="15.1105" x2="19.186" y2="8.38876" gradientUnits="userSpaceOnUse">
<stop offset="0.216532" stop-color="#CA59F7"/>
<stop offset="0.888362" stop-color="#691A90"/>
</linearGradient>
<linearGradient id="paint7_linear_10259_24202" x1="29.0609" y1="7.47028" x2="4.00533" y2="7.47028" gradientUnits="userSpaceOnUse">
<stop offset="0.807408" stop-color="#DE66FF"/>
<stop offset="1" stop-color="#FCB1FF"/>
</linearGradient>
<radialGradient id="paint8_radial_10259_24202" cx="0" cy="0" r="1" gradientUnits="userSpaceOnUse" gradientTransform="translate(29.7258 -0.501971) rotate(120.45) scale(23.8053 41.0616)">
<stop stop-color="#FFC7A3"/>
<stop offset="0.830508" stop-color="#DE67FD" stop-opacity="0"/>
</radialGradient>
<radialGradient id="paint9_radial_10259_24202" cx="0" cy="0" r="1" gradientUnits="userSpaceOnUse" gradientTransform="translate(0 14) rotate(45) scale(19.799)">
<stop offset="0.071875" stop-color="#AC13EB"/>
<stop offset="0.878742" stop-color="#580087"/>
</radialGradient>
<radialGradient id="paint10_radial_10259_24202" cx="0" cy="0" r="1" gradientUnits="userSpaceOnUse" gradientTransform="translate(7 22.4) rotate(90) scale(9.8 11.2875)">
<stop offset="0.584821" stop-color="#841FB0" stop-opacity="0"/>
<stop offset="0.968712" stop-color="#D373FC"/>
</radialGradient>
<linearGradient id="paint11_linear_10259_24202" x1="3.6726" y1="16" x2="17.6023" y2="19.2192" gradientUnits="userSpaceOnUse">
<stop stop-color="white"/>
<stop offset="1" stop-color="#FDD3FF"/>
</linearGradient>
<radialGradient id="paint12_radial_10259_24202" cx="0" cy="0" r="1" gradientUnits="userSpaceOnUse" gradientTransform="translate(18 10.5) rotate(6.69261) scale(12.8708 17.3566)">
<stop stop-color="#6E1996"/>
<stop offset="0.384551" stop-color="#A931D8"/>
</radialGradient>
<linearGradient id="paint13_linear_10259_24202" x1="10.2959" y1="4" x2="30.4966" y2="14.0038" gradientUnits="userSpaceOnUse">
<stop stop-color="#FDD3FF"/>
<stop offset="1" stop-color="#F3D8FF"/>
</linearGradient>
<linearGradient id="paint14_linear_10259_24202" x1="17.2" y1="3.38462" x2="18.1464" y2="15.0732" gradientUnits="userSpaceOnUse">
<stop stop-color="#FDD3FF"/>
<stop offset="1" stop-color="white"/>
</linearGradient>
</defs>
</svg>
