<svg width="32" height="32" viewBox="0 0 32 32" fill="none" xmlns="http://www.w3.org/2000/svg">
<g clip-path="url(#clip0_10_60)">
<path d="M4 23.4545C4 20.4421 6.44208 18 9.45455 18L28 18V28.33C28 29.8046 26.8046 31 25.33 31H9C6.23858 31 4 28.7614 4 26V23.4545Z" fill="url(#paint0_radial_10_60)"/>
<path d="M27.33 12H25V20H27.33C28.8046 20 30 18.8046 30 17.33V14.67C30 13.1954 28.8046 12 27.33 12Z" fill="#D9D9D9"/>
<path d="M27.33 12H25V20H27.33C28.8046 20 30 18.8046 30 17.33V14.67C30 13.1954 28.8046 12 27.33 12Z" fill="url(#paint1_radial_10_60)"/>
<path d="M6 21.4545C6 18.4421 8.44208 16 11.4545 16L26 16V26.33C26 27.8046 24.8046 29 23.33 29H9C7.34315 29 6 27.6569 6 26V21.4545Z" fill="url(#paint2_radial_10_60)"/>
<path d="M6 21.4545C6 18.4421 8.44208 16 11.4545 16L26 16V26.33C26 27.8046 24.8046 29 23.33 29H9C7.34315 29 6 27.6569 6 26V21.4545Z" fill="url(#paint3_linear_10_60)"/>
<path d="M6 21.4545C6 18.4421 8.44208 16 11.4545 16L26 16V26.33C26 27.8046 24.8046 29 23.33 29H9C7.34315 29 6 27.6569 6 26V21.4545Z" fill="url(#paint4_linear_10_60)"/>
<path d="M27.33 4H25V12H27.33C28.8046 12 30 10.8046 30 9.33V6.67C30 5.1954 28.8046 4 27.33 4Z" fill="#D9D9D9"/>
<path d="M27.33 4H25V12H27.33C28.8046 12 30 10.8046 30 9.33V6.67C30 5.1954 28.8046 4 27.33 4Z" fill="url(#paint5_radial_10_60)"/>
<path d="M17.0005 7.99989H28.0005V18.3299C28.0005 19.8045 26.8051 20.9999 25.3305 20.9999H17.0005V7.99989Z" fill="url(#paint6_linear_10_60)"/>
<path d="M20 27.5376L4.62482 27.6684L4.12418 6.11611C4.059 3.30999 6.3163 1 9.12318 1H25.3295C26.8041 1 28 2.1954 28 3.67V14.2688V24.8676C28 26.3422 26.8046 27.5376 25.33 27.5376H20Z" fill="url(#paint7_linear_10_60)"/>
<path d="M20 27.5376L4.62482 27.6684L4.12418 6.11611C4.059 3.30999 6.3163 1 9.12318 1H25.3295C26.8041 1 28 2.1954 28 3.67V14.2688V24.8676C28 26.3422 26.8046 27.5376 25.33 27.5376H20Z" fill="url(#paint8_radial_10_60)"/>
<rect y="14" width="14" height="14" rx="2.75" fill="url(#paint9_radial_10_60)"/>
<rect y="14" width="14" height="14" rx="2.75" fill="url(#paint10_radial_10_60)" fill-opacity="0.8"/>
<path d="M11.1789 21.8643C12.0074 21.8643 12.6789 22.5359 12.6789 23.3643C12.6789 24.0597 12.2474 24.5756 11.6955 24.8927C11.2429 25.1527 10.6747 25.3027 10.0666 25.3477C10.0578 25.3484 10.049 25.349 10.0403 25.3497C9.92106 25.3579 9.80053 25.3643 9.67892 25.3643L9.67795 25.3634L9.67697 25.3643C9.55503 25.3643 9.43418 25.3579 9.31467 25.3497C9.30587 25.349 9.29708 25.3484 9.2883 25.3477C8.68064 25.3026 8.11275 25.1526 7.66037 24.8927C7.10848 24.5756 6.67697 24.0597 6.67697 23.3643C6.67697 22.5359 7.34854 21.8643 8.17697 21.8643H11.1789Z" fill="#242424"/>
<path d="M11.1789 21.8643C12.0074 21.8643 12.6789 22.5359 12.6789 23.3643C12.6789 24.0597 12.2474 24.5756 11.6955 24.8927C11.2429 25.1527 10.6747 25.3027 10.0666 25.3477C10.0578 25.3484 10.049 25.349 10.0403 25.3497C9.92106 25.3579 9.80053 25.3643 9.67892 25.3643L9.67795 25.3634L9.67697 25.3643C9.55503 25.3643 9.43418 25.3579 9.31467 25.3497C9.30587 25.349 9.29708 25.3484 9.2883 25.3477C8.68064 25.3026 8.11275 25.1526 7.66037 24.8927C7.10848 24.5756 6.67697 24.0597 6.67697 23.3643C6.67697 22.5359 7.34854 21.8643 8.17697 21.8643H11.1789Z" fill="url(#paint11_linear_10_60)"/>
<path d="M11.1789 21.8643C12.0074 21.8643 12.6789 22.5359 12.6789 23.3643C12.6789 24.0597 12.2474 24.5756 11.6955 24.8927C11.2429 25.1527 10.6747 25.3027 10.0666 25.3477C10.0578 25.3484 10.049 25.349 10.0403 25.3497C9.92106 25.3579 9.80053 25.3643 9.67892 25.3643L9.67795 25.3634L9.67697 25.3643C9.55503 25.3643 9.43418 25.3579 9.31467 25.3497C9.30587 25.349 9.29708 25.3484 9.2883 25.3477C8.68064 25.3026 8.11275 25.1526 7.66037 24.8927C7.10848 24.5756 6.67697 24.0597 6.67697 23.3643C6.67697 22.5359 7.34854 21.8643 8.17697 21.8643H11.1789Z" fill="url(#paint12_linear_10_60)"/>
<path d="M9.92599 17.3614C10.8925 17.3614 11.676 18.1449 11.676 19.1114C11.6757 20.0777 10.8923 20.8614 9.92599 20.8614C8.95966 20.8614 8.17626 20.0777 8.17599 19.1114C8.17599 18.1449 8.9595 17.3614 9.92599 17.3614Z" fill="#242424"/>
<path d="M9.92599 17.3614C10.8925 17.3614 11.676 18.1449 11.676 19.1114C11.6757 20.0777 10.8923 20.8614 9.92599 20.8614C8.95966 20.8614 8.17626 20.0777 8.17599 19.1114C8.17599 18.1449 8.9595 17.3614 9.92599 17.3614Z" fill="url(#paint13_linear_10_60)"/>
<path d="M9.92599 17.3614C10.8925 17.3614 11.676 18.1449 11.676 19.1114C11.6757 20.0777 10.8923 20.8614 9.92599 20.8614C8.95966 20.8614 8.17626 20.0777 8.17599 19.1114C8.17599 18.1449 8.9595 17.3614 9.92599 17.3614Z" fill="url(#paint14_linear_10_60)"/>
<path d="M7.32932 21.8721C8.08572 21.9489 8.67599 22.5877 8.67599 23.3643C8.67599 24.1358 8.20672 24.7729 7.57443 25.1944C6.93866 25.6182 6.08932 25.8643 5.17599 25.8643C4.26267 25.8643 3.41333 25.6182 2.77756 25.1944C2.14527 24.7729 1.67599 24.1358 1.67599 23.3643C1.67599 22.5359 2.34757 21.8643 3.17599 21.8643H7.17599L7.32932 21.8721ZM5.17795 16.3604C6.42134 16.3606 7.42977 17.369 7.4299 18.6124C7.4299 19.8559 6.42142 20.8642 5.17795 20.8643C3.93436 20.8643 2.92599 19.856 2.92599 18.6124C2.92613 17.3689 3.93444 16.3604 5.17795 16.3604Z" fill="#242424"/>
<path d="M7.32932 21.8721C8.08572 21.9489 8.67599 22.5877 8.67599 23.3643C8.67599 24.1358 8.20672 24.7729 7.57443 25.1944C6.93866 25.6182 6.08932 25.8643 5.17599 25.8643C4.26267 25.8643 3.41333 25.6182 2.77756 25.1944C2.14527 24.7729 1.67599 24.1358 1.67599 23.3643C1.67599 22.5359 2.34757 21.8643 3.17599 21.8643H7.17599L7.32932 21.8721ZM5.17795 16.3604C6.42134 16.3606 7.42977 17.369 7.4299 18.6124C7.4299 19.8559 6.42142 20.8642 5.17795 20.8643C3.93436 20.8643 2.92599 19.856 2.92599 18.6124C2.92613 17.3689 3.93444 16.3604 5.17795 16.3604Z" fill="url(#paint15_linear_10_60)"/>
</g>
<g opacity="0.5">
<path d="M19.506 3.86043H12.846C11.3714 3.86043 10.176 5.05583 10.176 6.53043V9.19043C10.176 10.665 11.3714 11.8604 12.846 11.8604H19.506C20.9806 11.8604 22.176 10.665 22.176 9.19043V6.53043C22.176 5.05583 20.9806 3.86043 19.506 3.86043Z" fill="#D9D9D9"/>
<path d="M19.506 3.86043H12.846C11.3714 3.86043 10.176 5.05583 10.176 6.53043V9.19043C10.176 10.665 11.3714 11.8604 12.846 11.8604H19.506C20.9806 11.8604 22.176 10.665 22.176 9.19043V6.53043C22.176 5.05583 20.9806 3.86043 19.506 3.86043Z" fill="url(#paint16_radial_10_60)"/>
<path d="M19.506 3.86043H12.846C11.3714 3.86043 10.176 5.05583 10.176 6.53043V9.19043C10.176 10.665 11.3714 11.8604 12.846 11.8604H19.506C20.9806 11.8604 22.176 10.665 22.176 9.19043V6.53043C22.176 5.05583 20.9806 3.86043 19.506 3.86043Z" fill="url(#paint17_linear_10_60)"/>
</g>
<defs>
<radialGradient id="paint0_radial_10_60" cx="0" cy="0" r="1" gradientUnits="userSpaceOnUse" gradientTransform="translate(27.3003 31) scale(38.0587 17.375)">
<stop offset="0.158518" stop-color="#A931D8"/>
<stop offset="0.565784" stop-color="#6E1996"/>
</radialGradient>
<radialGradient id="paint1_radial_10_60" cx="0" cy="0" r="1" gradientUnits="userSpaceOnUse" gradientTransform="translate(25 18.5) rotate(6.69261) scale(12.8708 17.3566)">
<stop stop-color="#6E1996"/>
<stop offset="0.384551" stop-color="#A931D8"/>
</radialGradient>
<radialGradient id="paint2_radial_10_60" cx="0" cy="0" r="1" gradientUnits="userSpaceOnUse" gradientTransform="translate(27.3003 29) scale(38.0587 17.375)">
<stop offset="0.158518" stop-color="#A931D8"/>
<stop offset="0.565784" stop-color="#6E1996"/>
</radialGradient>
<linearGradient id="paint3_linear_10_60" x1="6.49313" y1="16" x2="39.8201" y2="32.9273" gradientUnits="userSpaceOnUse">
<stop stop-color="#FDD3FF"/>
<stop offset="1" stop-color="#F3D8FF"/>
</linearGradient>
<linearGradient id="paint4_linear_10_60" x1="18" y1="15" x2="19.5" y2="34" gradientUnits="userSpaceOnUse">
<stop stop-color="#FDD3FF"/>
<stop offset="1" stop-color="white"/>
</linearGradient>
<radialGradient id="paint5_radial_10_60" cx="0" cy="0" r="1" gradientUnits="userSpaceOnUse" gradientTransform="translate(25 10.5) rotate(6.69261) scale(12.8708 17.3566)">
<stop stop-color="#6E1996"/>
<stop offset="0.384551" stop-color="#A931D8"/>
</radialGradient>
<linearGradient id="paint6_linear_10_60" x1="32.9384" y1="15.1105" x2="19.1865" y2="8.38878" gradientUnits="userSpaceOnUse">
<stop offset="0.216532" stop-color="#CA59F7"/>
<stop offset="0.888362" stop-color="#691A90"/>
</linearGradient>
<linearGradient id="paint7_linear_10_60" x1="29.0613" y1="9.58529" x2="4.00578" y2="9.58529" gradientUnits="userSpaceOnUse">
<stop offset="0.807408" stop-color="#DE66FF"/>
<stop offset="1" stop-color="#FCB1FF"/>
</linearGradient>
<radialGradient id="paint8_radial_10_60" cx="0" cy="0" r="1" gradientTransform="matrix(-12.0644 27.23 -35.3979 -27.6119 29.7262 -0.992936)" gradientUnits="userSpaceOnUse">
<stop stop-color="#FFC7A3"/>
<stop offset="0.830508" stop-color="#DE67FD" stop-opacity="0"/>
</radialGradient>
<radialGradient id="paint9_radial_10_60" cx="0" cy="0" r="1" gradientUnits="userSpaceOnUse" gradientTransform="translate(0 14) rotate(45) scale(19.799)">
<stop offset="0.071875" stop-color="#AC13EB"/>
<stop offset="0.878742" stop-color="#580087"/>
</radialGradient>
<radialGradient id="paint10_radial_10_60" cx="0" cy="0" r="1" gradientUnits="userSpaceOnUse" gradientTransform="translate(7 22.4) rotate(90) scale(9.8 11.2875)">
<stop offset="0.584821" stop-color="#841FB0" stop-opacity="0"/>
<stop offset="0.968712" stop-color="#D373FC"/>
</radialGradient>
<linearGradient id="paint11_linear_10_60" x1="11.0699" y1="17.3614" x2="1.94551" y2="19.0563" gradientUnits="userSpaceOnUse">
<stop stop-color="#FDD3FF"/>
<stop offset="1" stop-color="#F3D8FF"/>
</linearGradient>
<linearGradient id="paint12_linear_10_60" x1="34.177" y1="46.3604" x2="5.67697" y2="12.8604" gradientUnits="userSpaceOnUse">
<stop stop-color="#DE66FF"/>
<stop offset="0.795925" stop-color="#FCB1FF"/>
</linearGradient>
<linearGradient id="paint13_linear_10_60" x1="11.0699" y1="17.3614" x2="1.94551" y2="19.0563" gradientUnits="userSpaceOnUse">
<stop stop-color="#FDD3FF"/>
<stop offset="1" stop-color="#F3D8FF"/>
</linearGradient>
<linearGradient id="paint14_linear_10_60" x1="34.177" y1="46.3604" x2="5.67697" y2="12.8604" gradientUnits="userSpaceOnUse">
<stop stop-color="#DE66FF"/>
<stop offset="0.795925" stop-color="#FCB1FF"/>
</linearGradient>
<linearGradient id="paint15_linear_10_60" x1="1.84859" y1="16.3604" x2="15.703" y2="19.7293" gradientUnits="userSpaceOnUse">
<stop stop-color="white"/>
<stop offset="1" stop-color="#FDD3FF"/>
</linearGradient>
<radialGradient id="paint16_radial_10_60" cx="0" cy="0" r="1" gradientUnits="userSpaceOnUse" gradientTransform="translate(18.176 10.3604) rotate(6.69261) scale(12.8708 17.3566)">
<stop stop-color="#6E1996"/>
<stop offset="0.384551" stop-color="#A931D8"/>
</radialGradient>
<linearGradient id="paint17_linear_10_60" x1="10.4719" y1="3.86043" x2="30.6726" y2="13.8642" gradientUnits="userSpaceOnUse">
<stop stop-color="#FDD3FF"/>
<stop offset="1" stop-color="#F3D8FF"/>
</linearGradient>
<clipPath id="clip0_10_60">
<rect width="32" height="32" fill="white"/>
</clipPath>
</defs>
</svg>
