<svg width="32" height="32" viewBox="0 0 32 32" fill="none" xmlns="http://www.w3.org/2000/svg">
<path d="M4 23.4545C4 20.4421 6.44208 18 9.45455 18L28 18V28.33C28 29.8046 26.8046 31 25.33 31H9C6.23858 31 4 28.7614 4 26V23.4545Z" fill="url(#paint0_radial_10259_24330)"/>
<path d="M27.33 12H25V20H27.33C28.8046 20 30 18.8046 30 17.33V14.67C30 13.1954 28.8046 12 27.33 12Z" fill="#D9D9D9"/>
<path d="M27.33 12H25V20H27.33C28.8046 20 30 18.8046 30 17.33V14.67C30 13.1954 28.8046 12 27.33 12Z" fill="url(#paint1_radial_10259_24330)"/>
<path d="M6 21.4545C6 18.4421 8.44208 16 11.4545 16L26 16V26.33C26 27.8046 24.8046 29 23.33 29H9C7.34315 29 6 27.6569 6 26V21.4545Z" fill="url(#paint2_radial_10259_24330)"/>
<path d="M6 21.4545C6 18.4421 8.44208 16 11.4545 16L26 16V26.33C26 27.8046 24.8046 29 23.33 29H9C7.34315 29 6 27.6569 6 26V21.4545Z" fill="url(#paint3_linear_10259_24330)"/>
<path d="M6 21.4545C6 18.4421 8.44208 16 11.4545 16L26 16V26.33C26 27.8046 24.8046 29 23.33 29H9C7.34315 29 6 27.6569 6 26V21.4545Z" fill="url(#paint4_linear_10259_24330)"/>
<path d="M27.33 4H25V12H27.33C28.8046 12 30 10.8046 30 9.33V6.67C30 5.1954 28.8046 4 27.33 4Z" fill="#D9D9D9"/>
<path d="M27.33 4H25V12H27.33C28.8046 12 30 10.8046 30 9.33V6.67C30 5.1954 28.8046 4 27.33 4Z" fill="url(#paint5_radial_10259_24330)"/>
<path d="M17 7.99988H28V18.3299C28 19.8045 26.8046 20.9999 25.33 20.9999H17V7.99988Z" fill="url(#paint6_linear_10259_24330)"/>
<path d="M4.00488 6C4.00488 3.23858 6.24388 1 9.0053 1C14.5073 1 19.7389 1 25.329 1C26.8036 1 27.9996 2.1954 27.9996 3.67V11V18.33C27.9996 19.8046 26.8042 21 25.3296 21H19.9996H9C6.23937 21 4.00219 23.2394 4.00488 26V6Z" fill="url(#paint7_linear_10259_24330)"/>
<path d="M4.00488 6C4.00488 3.23858 6.24388 1 9.0053 1C14.5073 1 19.7389 1 25.329 1C26.8036 1 27.9996 2.1954 27.9996 3.67V11V18.33C27.9996 19.8046 26.8042 21 25.3296 21H19.9996H9C6.23937 21 4.00219 23.2394 4.00488 26V6Z" fill="url(#paint8_radial_10259_24330)"/>
<rect y="14" width="14" height="14" rx="2.75" fill="url(#paint9_radial_10259_24330)"/>
<rect y="14" width="14" height="14" rx="2.75" fill="url(#paint10_radial_10259_24330)" fill-opacity="0.8"/>
<path d="M19.33 4H12.67C11.1954 4 10 5.1954 10 6.67V9.33C10 10.8046 11.1954 12 12.67 12H19.33C20.8046 12 22 10.8046 22 9.33V6.67C22 5.1954 20.8046 4 19.33 4Z" fill="#D9D9D9"/>
<path d="M19.33 4H12.67C11.1954 4 10 5.1954 10 6.67V9.33C10 10.8046 11.1954 12 12.67 12H19.33C20.8046 12 22 10.8046 22 9.33V6.67C22 5.1954 20.8046 4 19.33 4Z" fill="url(#paint11_radial_10259_24330)"/>
<path d="M19.33 4H12.67C11.1954 4 10 5.1954 10 6.67V9.33C10 10.8046 11.1954 12 12.67 12H19.33C20.8046 12 22 10.8046 22 9.33V6.67C22 5.1954 20.8046 4 19.33 4Z" fill="url(#paint12_linear_10259_24330)"/>
<path d="M19.33 4H12.67C11.1954 4 10 5.1954 10 6.67V9.33C10 10.8046 11.1954 12 12.67 12H19.33C20.8046 12 22 10.8046 22 9.33V6.67C22 5.1954 20.8046 4 19.33 4Z" fill="url(#paint13_linear_10259_24330)"/>
<path fill-rule="evenodd" clip-rule="evenodd" d="M7.15332 22.0117C7.90972 22.0885 8.5 22.7272 8.5 23.5039C8.5 24.2754 8.03072 24.9125 7.39844 25.334C6.76267 25.7578 5.91333 26.0039 5 26.0039C4.08667 26.0039 3.23733 25.7578 2.60156 25.334C1.96928 24.9125 1.5 24.2754 1.5 23.5039C1.5 22.6755 2.17157 22.0039 3 22.0039H7L7.15332 22.0117ZM11.0029 22.0039C11.8314 22.0039 12.5029 22.6755 12.5029 23.5039C12.5029 24.1993 12.0714 24.7151 11.5195 25.0322C10.9718 25.3469 10.255 25.5039 9.50293 25.5039C9.25006 25.5039 9.00153 25.4838 8.76172 25.4482C9.19499 24.9361 9.50098 24.2823 9.50098 23.5039C9.50098 22.9402 9.31181 22.4221 8.99707 22.0039H11.0029ZM5.00195 16.5C6.24534 16.5001 7.25377 17.5086 7.25391 18.752C7.25391 19.9955 6.24543 21.0038 5.00195 21.0039C3.75837 21.0039 2.75 19.9955 2.75 18.752C2.75013 17.5085 3.75845 16.5 5.00195 16.5ZM9.75 17.501C10.7165 17.501 11.5 18.2845 11.5 19.251C11.4997 20.2173 10.7163 21.001 9.75 21.001C8.78366 21.001 8.00026 20.2173 8 19.251C8 18.2845 8.7835 17.501 9.75 17.501Z" fill="#242424"/>
<path fill-rule="evenodd" clip-rule="evenodd" d="M7.15332 22.0117C7.90972 22.0885 8.5 22.7272 8.5 23.5039C8.5 24.2754 8.03072 24.9125 7.39844 25.334C6.76267 25.7578 5.91333 26.0039 5 26.0039C4.08667 26.0039 3.23733 25.7578 2.60156 25.334C1.96928 24.9125 1.5 24.2754 1.5 23.5039C1.5 22.6755 2.17157 22.0039 3 22.0039H7L7.15332 22.0117ZM11.0029 22.0039C11.8314 22.0039 12.5029 22.6755 12.5029 23.5039C12.5029 24.1993 12.0714 24.7151 11.5195 25.0322C10.9718 25.3469 10.255 25.5039 9.50293 25.5039C9.25006 25.5039 9.00153 25.4838 8.76172 25.4482C9.19499 24.9361 9.50098 24.2823 9.50098 23.5039C9.50098 22.9402 9.31181 22.4221 8.99707 22.0039H11.0029ZM5.00195 16.5C6.24534 16.5001 7.25377 17.5086 7.25391 18.752C7.25391 19.9955 6.24543 21.0038 5.00195 21.0039C3.75837 21.0039 2.75 19.9955 2.75 18.752C2.75013 17.5085 3.75845 16.5 5.00195 16.5ZM9.75 17.501C10.7165 17.501 11.5 18.2845 11.5 19.251C11.4997 20.2173 10.7163 21.001 9.75 21.001C8.78366 21.001 8.00026 20.2173 8 19.251C8 18.2845 8.7835 17.501 9.75 17.501Z" fill="url(#paint14_linear_10259_24330)"/>
<path fill-rule="evenodd" clip-rule="evenodd" d="M7.15332 22.0117C7.90972 22.0885 8.5 22.7272 8.5 23.5039C8.5 24.2754 8.03072 24.9125 7.39844 25.334C6.76267 25.7578 5.91333 26.0039 5 26.0039C4.08667 26.0039 3.23733 25.7578 2.60156 25.334C1.96928 24.9125 1.5 24.2754 1.5 23.5039C1.5 22.6755 2.17157 22.0039 3 22.0039H7L7.15332 22.0117ZM11.0029 22.0039C11.8314 22.0039 12.5029 22.6755 12.5029 23.5039C12.5029 24.1993 12.0714 24.7151 11.5195 25.0322C10.9718 25.3469 10.255 25.5039 9.50293 25.5039C9.25006 25.5039 9.00153 25.4838 8.76172 25.4482C9.19499 24.9361 9.50098 24.2823 9.50098 23.5039C9.50098 22.9402 9.31181 22.4221 8.99707 22.0039H11.0029ZM5.00195 16.5C6.24534 16.5001 7.25377 17.5086 7.25391 18.752C7.25391 19.9955 6.24543 21.0038 5.00195 21.0039C3.75837 21.0039 2.75 19.9955 2.75 18.752C2.75013 17.5085 3.75845 16.5 5.00195 16.5ZM9.75 17.501C10.7165 17.501 11.5 18.2845 11.5 19.251C11.4997 20.2173 10.7163 21.001 9.75 21.001C8.78366 21.001 8.00026 20.2173 8 19.251C8 18.2845 8.7835 17.501 9.75 17.501Z" fill="url(#paint15_linear_10259_24330)"/>
<defs>
<radialGradient id="paint0_radial_10259_24330" cx="0" cy="0" r="1" gradientUnits="userSpaceOnUse" gradientTransform="translate(27.3003 31) scale(38.0587 17.375)">
<stop offset="0.158518" stop-color="#A931D8"/>
<stop offset="0.565784" stop-color="#6E1996"/>
</radialGradient>
<radialGradient id="paint1_radial_10259_24330" cx="0" cy="0" r="1" gradientUnits="userSpaceOnUse" gradientTransform="translate(25 18.5) rotate(6.69261) scale(12.8708 17.3566)">
<stop stop-color="#6E1996"/>
<stop offset="0.384551" stop-color="#A931D8"/>
</radialGradient>
<radialGradient id="paint2_radial_10259_24330" cx="0" cy="0" r="1" gradientUnits="userSpaceOnUse" gradientTransform="translate(27.3003 29) scale(38.0587 17.375)">
<stop offset="0.158518" stop-color="#A931D8"/>
<stop offset="0.565784" stop-color="#6E1996"/>
</radialGradient>
<linearGradient id="paint3_linear_10259_24330" x1="6.49313" y1="16" x2="39.8201" y2="32.9273" gradientUnits="userSpaceOnUse">
<stop stop-color="#FDD3FF"/>
<stop offset="1" stop-color="#F3D8FF"/>
</linearGradient>
<linearGradient id="paint4_linear_10259_24330" x1="18" y1="15" x2="19.5" y2="34" gradientUnits="userSpaceOnUse">
<stop stop-color="#FDD3FF"/>
<stop offset="1" stop-color="white"/>
</linearGradient>
<radialGradient id="paint5_radial_10259_24330" cx="0" cy="0" r="1" gradientUnits="userSpaceOnUse" gradientTransform="translate(25 10.5) rotate(6.69261) scale(12.8708 17.3566)">
<stop stop-color="#6E1996"/>
<stop offset="0.384551" stop-color="#A931D8"/>
</radialGradient>
<linearGradient id="paint6_linear_10259_24330" x1="32.9379" y1="15.1105" x2="19.186" y2="8.38876" gradientUnits="userSpaceOnUse">
<stop offset="0.216532" stop-color="#CA59F7"/>
<stop offset="0.888362" stop-color="#691A90"/>
</linearGradient>
<linearGradient id="paint7_linear_10259_24330" x1="29.0609" y1="7.47028" x2="4.00533" y2="7.47028" gradientUnits="userSpaceOnUse">
<stop offset="0.807408" stop-color="#DE66FF"/>
<stop offset="1" stop-color="#FCB1FF"/>
</linearGradient>
<radialGradient id="paint8_radial_10259_24330" cx="0" cy="0" r="1" gradientUnits="userSpaceOnUse" gradientTransform="translate(29.7258 -0.501971) rotate(120.45) scale(23.8053 41.0616)">
<stop stop-color="#FFC7A3"/>
<stop offset="0.830508" stop-color="#DE67FD" stop-opacity="0"/>
</radialGradient>
<radialGradient id="paint9_radial_10259_24330" cx="0" cy="0" r="1" gradientUnits="userSpaceOnUse" gradientTransform="translate(0 14) rotate(45) scale(19.799)">
<stop offset="0.071875" stop-color="#AC13EB"/>
<stop offset="0.878742" stop-color="#580087"/>
</radialGradient>
<radialGradient id="paint10_radial_10259_24330" cx="0" cy="0" r="1" gradientUnits="userSpaceOnUse" gradientTransform="translate(7 22.4) rotate(90) scale(9.8 11.2875)">
<stop offset="0.584821" stop-color="#841FB0" stop-opacity="0"/>
<stop offset="0.968712" stop-color="#D373FC"/>
</radialGradient>
<radialGradient id="paint11_radial_10259_24330" cx="0" cy="0" r="1" gradientUnits="userSpaceOnUse" gradientTransform="translate(18 10.5) rotate(6.69261) scale(12.8708 17.3566)">
<stop stop-color="#6E1996"/>
<stop offset="0.384551" stop-color="#A931D8"/>
</radialGradient>
<linearGradient id="paint12_linear_10259_24330" x1="10.2959" y1="4" x2="30.4966" y2="14.0038" gradientUnits="userSpaceOnUse">
<stop stop-color="#FDD3FF"/>
<stop offset="1" stop-color="#F3D8FF"/>
</linearGradient>
<linearGradient id="paint13_linear_10259_24330" x1="17.2" y1="3.38462" x2="18.1464" y2="15.0732" gradientUnits="userSpaceOnUse">
<stop stop-color="#FDD3FF"/>
<stop offset="1" stop-color="white"/>
</linearGradient>
<linearGradient id="paint14_linear_10259_24330" x1="8.11103" y1="17.501" x2="17.2354" y2="19.1959" gradientUnits="userSpaceOnUse">
<stop stop-color="#FDD3FF"/>
<stop offset="1" stop-color="#F3D8FF"/>
</linearGradient>
<linearGradient id="paint15_linear_10259_24330" x1="1.7713" y1="16.5" x2="21.896" y2="24.192" gradientUnits="userSpaceOnUse">
<stop stop-color="white"/>
<stop offset="1" stop-color="#FDD3FF"/>
</linearGradient>
</defs>
</svg>
